<svg xmlns="http://www.w3.org/2000/svg" viewBox="0 0 800 450"><defs><linearGradient id="c" x1="0" y1="0" x2="0" y2="1"><stop offset="0" stop-color="#0a0710"/><stop offset="1" stop-color="#120a1e"/></linearGradient><radialGradient id="p" cx=".5" cy=".1" r=".8"><stop offset="0" stop-color="#8b6cf0" stop-opacity=".35"/><stop offset="1" stop-color="#000" stop-opacity="0"/></radialGradient></defs><rect width="800" height="450" fill="url(#c)"/><rect width="800" height="450" fill="url(#p)"/><g fill="#04030a"><rect x="0" y="0" width="800" height="46"/><rect x="0" y="404" width="800" height="46"/></g><g fill="#191325"><rect x="30" y="12" width="34" height="22" rx="3"/><rect x="98" y="12" width="34" height="22" rx="3"/><rect x="166" y="12" width="34" height="22" rx="3"/><rect x="234" y="12" width="34" height="22" rx="3"/><rect x="302" y="12" width="34" height="22" rx="3"/><rect x="370" y="12" width="34" height="22" rx="3"/><rect x="438" y="12" width="34" height="22" rx="3"/><rect x="506" y="12" width="34" height="22" rx="3"/><rect x="574" y="12" width="34" height="22" rx="3"/><rect x="642" y="12" width="34" height="22" rx="3"/><rect x="710" y="12" width="34" height="22" rx="3"/><rect x="30" y="416" width="34" height="22" rx="3"/><rect x="98" y="416" width="34" height="22" rx="3"/><rect x="166" y="416" width="34" height="22" rx="3"/><rect x="234" y="416" width="34" height="22" rx="3"/><rect x="302" y="416" width="34" height="22" rx="3"/><rect x="370" y="416" width="34" height="22" rx="3"/><rect x="438" y="416" width="34" height="22" rx="3"/><rect x="506" y="416" width="34" height="22" rx="3"/><rect x="574" y="416" width="34" height="22" rx="3"/><rect x="642" y="416" width="34" height="22" rx="3"/><rect x="710" y="416" width="34" height="22" rx="3"/></g><g fill="#f2c14e"><path d="M330 205l7 14 16 2-12 11 3 16-14-8-14 8 3-16-12-11 16-2z"/><path d="M400 205l7 14 16 2-12 11 3 16-14-8-14 8 3-16-12-11 16-2z"/><path d="M470 205l7 14 16 2-12 11 3 16-14-8-14 8 3-16-12-11 16-2z"/></g><text x="400" y="300" text-anchor="middle" font-family="Sora, Arial" font-size="24" font-weight="600" fill="#cfc6e8" letter-spacing="8">FOTOGRAMAS MALDITOS</text></svg>
