<svg xmlns="http://www.w3.org/2000/svg" viewBox="0 0 640 400"><defs><linearGradient id="wp" x1="0" y1="0" x2="1" y2="1"><stop offset="0" stop-color="#0a0f1e"/><stop offset="1" stop-color="#05050a"/></linearGradient><linearGradient id="doc" x1="0" y1="0" x2="0" y2="1"><stop offset="0" stop-color="#151d33"/><stop offset="1" stop-color="#0d1426"/></linearGradient></defs><rect width="640" height="400" fill="url(#wp)"/><circle cx="520" cy="80" r="150" fill="#4F8CFF" opacity=".08"/><circle cx="120" cy="330" r="120" fill="#8b6cf0" opacity=".08"/><g transform="rotate(-6 320 200)"><rect x="250" y="90" width="150" height="200" rx="10" fill="url(#doc)" stroke="#26314f" stroke-width="2"/><path d="M400 90 L400 130 L360 90 Z" fill="#1d2946"/><rect x="272" y="150" width="106" height="8" rx="4" fill="#31405f"/><rect x="272" y="172" width="88" height="8" rx="4" fill="#31405f"/><rect x="272" y="194" width="98" height="8" rx="4" fill="#31405f"/><path d="M272 246 q18 -18 30 0 q12 18 30 -4 q14 -16 26 2" fill="none" stroke="#4F8CFF" stroke-width="3" stroke-linecap="round"/></g><g transform="rotate(5 210 210)"><rect x="150" y="120" width="120" height="160" rx="9" fill="#0b1120" stroke="#1c2742" stroke-width="2" opacity=".9"/><rect x="168" y="150" width="80" height="7" rx="3.5" fill="#26314f"/><rect x="168" y="168" width="66" height="7" rx="3.5" fill="#26314f"/></g><rect x="40" y="330" width="96" height="6" fill="#4F8CFF"/><text x="40" y="365" font-family="Sora, Arial" font-size="24" font-weight="700" fill="#eceaf6" letter-spacing="1">EDITOR PDF</text></svg>
